<svg width="45" height="38" viewBox="0 0 45 38" fill="none" xmlns="http://www.w3.org/2000/svg">
<path d="M30.125 12.5362C26.3732 7.45494 23.6065 3.17397 22.4617 0.606631C22.0993 -0.20221 20.8971 -0.20221 20.5383 0.606631C19.3935 3.17397 17 6.41857 12.8732 12.5362C10.625 16.0913 8 20.3463 8 24.9177C8 32.718 13.4187 38 21.5 38C29.5813 38 35 32.7147 35 24.9177C35 20.1662 32.75 16.0914 30.125 12.5362Z" fill="#CB1818"/>
<path d="M22.5035 23.744C22.5035 24.472 22.4008 25.116 22.1955 25.676C21.9902 26.2267 21.7055 26.6887 21.3415 27.062C20.9775 27.426 20.5482 27.706 20.0535 27.902C19.5588 28.0887 19.0222 28.182 18.4435 28.182C17.8648 28.182 17.3282 28.0887 16.8335 27.902C16.3388 27.706 15.9095 27.426 15.5455 27.062C15.1815 26.6887 14.8968 26.2267 14.6915 25.676C14.4862 25.116 14.3835 24.472 14.3835 23.744C14.3835 23.016 14.4862 22.3767 14.6915 21.826C14.9062 21.2753 15.1955 20.8133 15.5595 20.44C15.9235 20.0667 16.3528 19.7867 16.8475 19.6C17.3422 19.404 17.8742 19.306 18.4435 19.306C19.0128 19.306 19.5448 19.404 20.0395 19.6C20.5342 19.7867 20.9635 20.0667 21.3275 20.44C21.6915 20.8133 21.9762 21.2753 22.1815 21.826C22.3962 22.3767 22.5035 23.016 22.5035 23.744ZM21.3415 23.744C21.3415 22.624 21.0755 21.7653 20.5435 21.168C20.0208 20.5707 19.3208 20.272 18.4435 20.272C18.0048 20.272 17.6082 20.3513 17.2535 20.51C16.8988 20.6593 16.5955 20.8833 16.3435 21.182C16.0915 21.4713 15.8955 21.8307 15.7555 22.26C15.6248 22.6893 15.5595 23.184 15.5595 23.744C15.5595 24.864 15.8208 25.7227 16.3435 26.32C16.8662 26.9173 17.5662 27.216 18.4435 27.216C19.3302 27.216 20.0348 26.9173 20.5575 26.32C21.0802 25.7227 21.3415 24.864 21.3415 23.744ZM28.0706 23.352H30.5626C30.5812 23.408 30.5999 23.4733 30.6186 23.548C30.6466 23.6227 30.6606 23.702 30.6606 23.786C30.6606 24.1127 30.4972 24.276 30.1706 24.276H28.0706V26.978C27.9959 27.006 27.9212 27.0293 27.8466 27.048C27.7812 27.0667 27.6972 27.076 27.5946 27.076C27.4079 27.076 27.2679 27.034 27.1746 26.95C27.0906 26.866 27.0486 26.7213 27.0486 26.516V24.276H24.5146C24.4866 24.2107 24.4632 24.1453 24.4446 24.08C24.4259 24.0053 24.4166 23.9213 24.4166 23.828C24.4166 23.5107 24.5799 23.352 24.9066 23.352H27.0486V20.706C27.1232 20.678 27.1979 20.6547 27.2726 20.636C27.3566 20.6173 27.4546 20.608 27.5666 20.608C27.7439 20.608 27.8699 20.65 27.9446 20.734C28.0286 20.818 28.0706 20.9627 28.0706 21.168V23.352Z" fill="white"/>
</svg>
