<svg width="21" height="24" viewBox="0 0 21 24" fill="none" xmlns="http://www.w3.org/2000/svg">
<path d="M10.8763 20.7752C9.81808 19.7452 8.83721 18.6159 7.94394 17.3993C6.60344 15.5723 5.0116 12.8513 5.0116 10.2584C5.01041 7.55037 6.43944 5.10841 8.63185 4.07204C10.8243 3.03566 13.3479 3.60915 15.0251 5.52489C16.1281 6.77792 16.7459 8.48239 16.741 10.2584C16.741 12.8513 15.1491 15.5723 13.8086 17.3993C12.9154 18.6159 11.9345 19.7452 10.8763 20.7752ZM10.8763 7.39019C9.97833 7.39019 9.14857 7.93686 8.69959 8.82429C8.25061 9.71172 8.25061 10.8051 8.69959 11.6925C9.14857 12.5799 9.97833 13.1266 10.8763 13.1266C12.2644 13.1266 13.3897 11.8425 13.3897 10.2584C13.3897 8.67433 12.2644 7.39019 10.8763 7.39019Z" fill="#38615D"/>
</svg>
