<svg width="45" height="38" viewBox="0 0 45 38" fill="none" xmlns="http://www.w3.org/2000/svg">
<path d="M30.125 12.5362C26.3732 7.45494 23.6065 3.17397 22.4617 0.606631C22.0993 -0.20221 20.8971 -0.20221 20.5383 0.606631C19.3935 3.17397 17 6.41857 12.8732 12.5362C10.625 16.0913 8 20.3463 8 24.9177C8 32.718 13.4187 38 21.5 38C29.5813 38 35 32.7147 35 24.9177C35 20.1662 32.75 16.0914 30.125 12.5362Z" fill="#CB1818"/>
<path d="M23.6178 23.744C23.6178 24.472 23.5151 25.116 23.3098 25.676C23.1044 26.2267 22.8198 26.6887 22.4558 27.062C22.0918 27.426 21.6624 27.706 21.1678 27.902C20.6731 28.0887 20.1364 28.182 19.5578 28.182C18.9791 28.182 18.4424 28.0887 17.9478 27.902C17.4531 27.706 17.0238 27.426 16.6598 27.062C16.2958 26.6887 16.0111 26.2267 15.8058 25.676C15.6004 25.116 15.4978 24.472 15.4978 23.744C15.4978 23.016 15.6004 22.3767 15.8058 21.826C16.0204 21.2753 16.3098 20.8133 16.6738 20.44C17.0378 20.0667 17.4671 19.7867 17.9618 19.6C18.4564 19.404 18.9884 19.306 19.5578 19.306C20.1271 19.306 20.6591 19.404 21.1538 19.6C21.6484 19.7867 22.0778 20.0667 22.4418 20.44C22.8058 20.8133 23.0904 21.2753 23.2958 21.826C23.5104 22.3767 23.6178 23.016 23.6178 23.744ZM22.4558 23.744C22.4558 22.624 22.1898 21.7653 21.6578 21.168C21.1351 20.5707 20.4351 20.272 19.5578 20.272C19.1191 20.272 18.7224 20.3513 18.3678 20.51C18.0131 20.6593 17.7098 20.8833 17.4578 21.182C17.2058 21.4713 17.0098 21.8307 16.8698 22.26C16.7391 22.6893 16.6738 23.184 16.6738 23.744C16.6738 24.864 16.9351 25.7227 17.4578 26.32C17.9804 26.9173 18.6804 27.216 19.5578 27.216C20.4444 27.216 21.1491 26.9173 21.6718 26.32C22.1944 25.7227 22.4558 24.864 22.4558 23.744ZM25.6708 24.808C25.6428 24.7427 25.6195 24.6773 25.6008 24.612C25.5822 24.5373 25.5728 24.4533 25.5728 24.36C25.5728 24.0427 25.7362 23.884 26.0628 23.884H29.4088C29.4275 23.94 29.4462 24.0053 29.4648 24.08C29.4928 24.1547 29.5068 24.234 29.5068 24.318C29.5068 24.6447 29.3435 24.808 29.0168 24.808H25.6708Z" fill="white"/>
</svg>
