<svg width="45" height="38" viewBox="0 0 45 38" fill="none" xmlns="http://www.w3.org/2000/svg">
<path d="M30.125 12.5362C26.3732 7.45494 23.6065 3.17397 22.4617 0.606631C22.0993 -0.20221 20.8971 -0.20221 20.5383 0.606631C19.3935 3.17397 17 6.41857 12.8732 12.5362C10.625 16.0913 8 20.3463 8 24.9177C8 32.718 13.4187 38 21.5 38C29.5813 38 35 32.7147 35 24.9177C35 20.1662 32.75 16.0914 30.125 12.5362Z" fill="#CB1818"/>
<path d="M23.4079 21.63C23.4079 22.0313 23.3099 22.4047 23.1139 22.75C22.9272 23.086 22.6099 23.3473 22.1619 23.534C22.6939 23.7113 23.0905 23.9913 23.3519 24.374C23.6132 24.7473 23.7439 25.172 23.7439 25.648C23.7439 26.4973 23.4359 27.1273 22.8199 27.538C22.2132 27.9487 21.3452 28.154 20.2159 28.154C19.8239 28.154 19.4412 28.1353 19.0679 28.098C18.7039 28.07 18.3539 28.0093 18.0179 27.916C17.6259 27.804 17.4299 27.5893 17.4299 27.272V20.104C17.4299 19.8333 17.5839 19.656 17.8919 19.572C18.2092 19.4787 18.5452 19.418 18.8999 19.39C19.2545 19.3527 19.6419 19.334 20.0619 19.334C21.1165 19.334 21.9379 19.5207 22.5259 19.894C23.1139 20.2673 23.4079 20.846 23.4079 21.63ZM18.5499 24.038V27.062C18.7739 27.1087 19.0305 27.146 19.3199 27.174C19.6185 27.202 19.9172 27.216 20.2159 27.216C20.9905 27.216 21.5785 27.09 21.9799 26.838C22.3812 26.5767 22.5819 26.1707 22.5819 25.62C22.5819 25.1347 22.3999 24.752 22.0359 24.472C21.6812 24.1827 21.1539 24.038 20.4539 24.038H18.5499ZM18.5499 23.114H20.4539C21.0419 23.114 21.4852 22.9833 21.7839 22.722C22.0919 22.4607 22.2459 22.106 22.2459 21.658C22.2459 20.734 21.5179 20.272 20.0619 20.272C19.7352 20.272 19.4505 20.286 19.2079 20.314C18.9745 20.3327 18.7552 20.3607 18.5499 20.398V23.114ZM24.2287 24.808C24.2007 24.7427 24.1774 24.6773 24.1587 24.612C24.1401 24.5373 24.1307 24.4533 24.1307 24.36C24.1307 24.0427 24.2941 23.884 24.6207 23.884H27.9667C27.9854 23.94 28.0041 24.0053 28.0227 24.08C28.0507 24.1547 28.0647 24.234 28.0647 24.318C28.0647 24.6447 27.9014 24.808 27.5747 24.808H24.2287Z" fill="white"/>
</svg>
