<svg width="45" height="38" viewBox="0 0 45 38" fill="none" xmlns="http://www.w3.org/2000/svg">
<path d="M30.125 12.5362C26.3732 7.45494 23.6065 3.17397 22.4617 0.606631C22.0993 -0.20221 20.8971 -0.20221 20.5383 0.606631C19.3935 3.17397 17 6.41857 12.8732 12.5362C10.625 16.0913 8 20.3463 8 24.9177C8 32.718 13.4187 38 21.5 38C29.5813 38 35 32.7147 35 24.9177C35 20.1662 32.75 16.0914 30.125 12.5362Z" fill="#CB1818"/>
<path d="M16.7077 25.732H12.9557C12.8903 25.9187 12.8203 26.124 12.7457 26.348C12.671 26.5627 12.5963 26.7773 12.5217 26.992C12.4563 27.1973 12.391 27.3933 12.3257 27.58C12.2603 27.7573 12.209 27.9067 12.1717 28.028C12.041 28.084 11.887 28.112 11.7097 28.112C11.5603 28.112 11.425 28.0747 11.3037 28C11.1917 27.916 11.1357 27.7853 11.1357 27.608C11.1357 27.524 11.1497 27.44 11.1777 27.356C11.2057 27.2627 11.2383 27.1647 11.2757 27.062C11.4157 26.67 11.593 26.166 11.8077 25.55C12.0317 24.934 12.2697 24.2807 12.5217 23.59C12.783 22.89 13.0443 22.19 13.3057 21.49C13.5763 20.7807 13.8237 20.146 14.0477 19.586C14.1223 19.5487 14.2343 19.5113 14.3837 19.474C14.533 19.4367 14.687 19.418 14.8457 19.418C15.0323 19.418 15.2097 19.446 15.3777 19.502C15.555 19.558 15.667 19.6513 15.7137 19.782C15.9377 20.3233 16.1757 20.944 16.4277 21.644C16.689 22.3347 16.9503 23.044 17.2117 23.772C17.473 24.5 17.7203 25.2187 17.9537 25.928C18.1963 26.628 18.411 27.2627 18.5977 27.832C18.523 27.916 18.4343 27.9813 18.3317 28.028C18.229 28.084 18.1123 28.112 17.9817 28.112C17.8043 28.112 17.669 28.0747 17.5757 28C17.4823 27.916 17.403 27.7807 17.3377 27.594L16.7077 25.732ZM14.8317 20.37C14.729 20.65 14.6123 20.972 14.4817 21.336C14.351 21.6907 14.2157 22.064 14.0757 22.456C13.9357 22.848 13.7957 23.2447 13.6557 23.646C13.5157 24.0473 13.385 24.43 13.2637 24.794H16.4137C16.2737 24.374 16.129 23.954 15.9797 23.534C15.8303 23.1047 15.6857 22.694 15.5457 22.302C15.415 21.91 15.289 21.5507 15.1677 21.224C15.0557 20.888 14.9623 20.6033 14.8877 20.37H14.8317ZM25.0348 21.63C25.0348 22.0313 24.9368 22.4047 24.7408 22.75C24.5542 23.086 24.2368 23.3473 23.7888 23.534C24.3208 23.7113 24.7175 23.9913 24.9788 24.374C25.2402 24.7473 25.3708 25.172 25.3708 25.648C25.3708 26.4973 25.0628 27.1273 24.4468 27.538C23.8402 27.9487 22.9722 28.154 21.8428 28.154C21.4508 28.154 21.0682 28.1353 20.6948 28.098C20.3308 28.07 19.9808 28.0093 19.6448 27.916C19.2528 27.804 19.0568 27.5893 19.0568 27.272V20.104C19.0568 19.8333 19.2108 19.656 19.5188 19.572C19.8362 19.4787 20.1722 19.418 20.5268 19.39C20.8815 19.3527 21.2688 19.334 21.6888 19.334C22.7435 19.334 23.5648 19.5207 24.1528 19.894C24.7408 20.2673 25.0348 20.846 25.0348 21.63ZM20.1768 24.038V27.062C20.4008 27.1087 20.6575 27.146 20.9468 27.174C21.2455 27.202 21.5442 27.216 21.8428 27.216C22.6175 27.216 23.2055 27.09 23.6068 26.838C24.0082 26.5767 24.2088 26.1707 24.2088 25.62C24.2088 25.1347 24.0268 24.752 23.6628 24.472C23.3082 24.1827 22.7808 24.038 22.0808 24.038H20.1768ZM20.1768 23.114H22.0808C22.6688 23.114 23.1122 22.9833 23.4108 22.722C23.7188 22.4607 23.8728 22.106 23.8728 21.658C23.8728 20.734 23.1448 20.272 21.6888 20.272C21.3622 20.272 21.0775 20.286 20.8348 20.314C20.6015 20.3327 20.3822 20.3607 20.1768 20.398V23.114ZM30.9824 23.352H33.4744C33.4931 23.408 33.5117 23.4733 33.5304 23.548C33.5584 23.6227 33.5724 23.702 33.5724 23.786C33.5724 24.1127 33.4091 24.276 33.0824 24.276H30.9824V26.978C30.9077 27.006 30.8331 27.0293 30.7584 27.048C30.6931 27.0667 30.6091 27.076 30.5064 27.076C30.3197 27.076 30.1797 27.034 30.0864 26.95C30.0024 26.866 29.9604 26.7213 29.9604 26.516V24.276H27.4264C27.3984 24.2107 27.3751 24.1453 27.3564 24.08C27.3377 24.0053 27.3284 23.9213 27.3284 23.828C27.3284 23.5107 27.4917 23.352 27.8184 23.352H29.9604V20.706C30.0351 20.678 30.1097 20.6547 30.1844 20.636C30.2684 20.6173 30.3664 20.608 30.4784 20.608C30.6557 20.608 30.7817 20.65 30.8564 20.734C30.9404 20.818 30.9824 20.9627 30.9824 21.168V23.352Z" fill="white"/>
</svg>
