<svg width="45" height="38" viewBox="0 0 45 38" fill="none" xmlns="http://www.w3.org/2000/svg">
<path d="M30.125 12.5362C26.3732 7.45494 23.6065 3.17397 22.4617 0.606631C22.0993 -0.20221 20.8971 -0.20221 20.5383 0.606631C19.3935 3.17397 17 6.41857 12.8732 12.5362C10.625 16.0913 8 20.3463 8 24.9177C8 32.718 13.4187 38 21.5 38C29.5813 38 35 32.7147 35 24.9177C35 20.1662 32.75 16.0914 30.125 12.5362Z" fill="#CB1818"/>
<path d="M21.4872 21.63C21.4872 22.0313 21.3892 22.4047 21.1932 22.75C21.0066 23.086 20.6892 23.3473 20.2412 23.534C20.7732 23.7113 21.1699 23.9913 21.4312 24.374C21.6926 24.7473 21.8232 25.172 21.8232 25.648C21.8232 26.4973 21.5152 27.1273 20.8992 27.538C20.2926 27.9487 19.4246 28.154 18.2952 28.154C17.9032 28.154 17.5206 28.1353 17.1472 28.098C16.7832 28.07 16.4332 28.0093 16.0972 27.916C15.7052 27.804 15.5092 27.5893 15.5092 27.272V20.104C15.5092 19.8333 15.6632 19.656 15.9712 19.572C16.2886 19.4787 16.6246 19.418 16.9792 19.39C17.3339 19.3527 17.7212 19.334 18.1412 19.334C19.1959 19.334 20.0172 19.5207 20.6052 19.894C21.1932 20.2673 21.4872 20.846 21.4872 21.63ZM16.6292 24.038V27.062C16.8532 27.1087 17.1099 27.146 17.3992 27.174C17.6979 27.202 17.9966 27.216 18.2952 27.216C19.0699 27.216 19.6579 27.09 20.0592 26.838C20.4606 26.5767 20.6612 26.1707 20.6612 25.62C20.6612 25.1347 20.4792 24.752 20.1152 24.472C19.7606 24.1827 19.2332 24.038 18.5332 24.038H16.6292ZM16.6292 23.114H18.5332C19.1212 23.114 19.5646 22.9833 19.8632 22.722C20.1712 22.4607 20.3252 22.106 20.3252 21.658C20.3252 20.734 19.5972 20.272 18.1412 20.272C17.8146 20.272 17.5299 20.286 17.2872 20.314C17.0539 20.3327 16.8346 20.3607 16.6292 20.398V23.114ZM27.4348 23.352H29.9268C29.9455 23.408 29.9642 23.4733 29.9828 23.548C30.0108 23.6227 30.0248 23.702 30.0248 23.786C30.0248 24.1127 29.8615 24.276 29.5348 24.276H27.4348V26.978C27.3602 27.006 27.2855 27.0293 27.2108 27.048C27.1455 27.0667 27.0615 27.076 26.9588 27.076C26.7722 27.076 26.6322 27.034 26.5388 26.95C26.4548 26.866 26.4128 26.7213 26.4128 26.516V24.276H23.8788C23.8508 24.2107 23.8275 24.1453 23.8088 24.08C23.7902 24.0053 23.7808 23.9213 23.7808 23.828C23.7808 23.5107 23.9442 23.352 24.2708 23.352H26.4128V20.706C26.4875 20.678 26.5622 20.6547 26.6368 20.636C26.7208 20.6173 26.8188 20.608 26.9308 20.608C27.1082 20.608 27.2342 20.65 27.3088 20.734C27.3928 20.818 27.4348 20.9627 27.4348 21.168V23.352Z" fill="white"/>
</svg>
