<?xml version="1.0" ?><svg id="Icon_Set" style="enable-background:new 0 0 512 512;" version="1.1" viewBox="0 0 512 512" xml:space="preserve" xmlns="http://www.w3.org/2000/svg" xmlns:xlink="http://www.w3.org/1999/xlink"><style type="text/css">
	.st0{fill:#F0C48A;}
	.st1{fill:#FD919E;}
	.st2{fill:#4C4372;}
	.st3{fill:#D3E6F8;}
	.st4{fill:#A4CFF2;}
	.st5{fill:#7BABF1;}
	.st6{fill:#FFFFFF;}
	.st7{fill:#E8677D;}
	.st8{fill:none;stroke:#4C4372;stroke-width:12;stroke-linecap:round;stroke-linejoin:round;stroke-miterlimit:10;}
</style><g id="Heart"><g><g><circle class="st0" cx="256" cy="256" r="207"/></g></g><g><g><g><polygon class="st5" points="198.484,230.08 161.615,175 184.13,159.4 220.998,214.48     "/></g></g><g><g><path class="st2" d="M198.483,236.08c-0.373,0-0.747-0.035-1.118-0.105c-1.58-0.3-2.974-1.221-3.868-2.557l-36.868-55.08      c-1.822-2.723-1.124-6.404,1.569-8.27l22.515-15.6c1.321-0.917,2.957-1.264,4.535-0.963c1.58,0.3,2.974,1.221,3.868,2.557      l36.868,55.08c1.822,2.723,1.124,6.404-1.569,8.27l-22.515,15.6C200.89,235.713,199.695,236.08,198.483,236.08z       M169.886,176.569l30.192,45.106l12.649-8.765l-30.192-45.106L169.886,176.569z"/></g></g><g><path class="st1" d="M323.23,219.515v-12.969c0-11.525,9.376-20.901,20.901-20.901h2.705v-27.357h-2.705     c-26.61,0-48.258,21.648-48.258,48.258v0.956c-2.978-1.037-5.903-1.982-8.734-2.841c-5.396-1.635-10.875-2.875-16.39-3.732     c0.495-3.143,1.103-6.337,1.844-9.533c10.167-43.808,35.994-47.463,44.481-48.664l-6.134-43.339     c-12.569,1.779-23.963,5.728-34.055,11.667c-1.691-7.271-0.469-15.041,3.68-23.181l-24.371-12.426     c-11.05,21.674-8.169,40.641-1.484,54.272c-2.996,3.495-5.784,7.266-8.354,11.304c-0.839-0.642-1.675-1.309-2.497-2.025     c-10.788-9.4-13.891-20.13-9.765-33.769l-26.186-7.921c-7.201,23.809-0.816,45.939,17.981,62.316     c2.815,2.452,5.697,4.597,8.502,6.459c-1.829,5.262-3.406,10.796-4.71,16.605c-1.518,6.762-2.573,13.44-3.299,19.803     c-10.883,2.527-21.424,6.66-31.247,12.426c-23.393,13.734-45.427,37.944-47.795,80.558     c-6.478,54.413,62.219,109.852,97.83,134.68c12.746,8.887,29.784,8.465,42.046-1.08c29.198-22.727,77.869-72.311,77.869-150.305     C365.086,250.834,345.777,231.993,323.23,219.515z"/></g><g><path class="st7" d="M267.327,241.689c2.605-16.508,4.008-29.662,5.371-40.422c-0.65-0.112-1.298-0.236-1.949-0.338     c0.495-3.143,1.103-6.337,1.844-9.533c1.648-7.101,3.712-13.132,6.042-18.283c0.982-2.416,2.127-4.656,3.497-6.759     c11.998-20.354,28.486-22.708,34.942-23.622l-2.738-19.342C314.336,123.391,224.579,142.457,267.327,241.689z"/></g><g><g><path class="st7" d="M348.659,238.739c-0.005-0.005-0.01-0.011-0.014-0.016c-1.935-2.077-3.996-4.06-6.165-5.947      c-0.024-0.021-0.049-0.042-0.073-0.063c-0.663-0.576-1.336-1.142-2.018-1.7c-0.101-0.084-0.203-0.167-0.305-0.249      c-0.585-0.471-1.168-0.943-1.764-1.4c-0.157-0.12-0.309-0.241-0.464-0.36c-1.489-1.139-3.013-2.242-4.57-3.307      c-0.083-0.057-0.168-0.112-0.251-0.169c-0.662-0.45-1.329-0.893-2.001-1.329c-0.219-0.143-0.44-0.283-0.66-0.424      c-0.549-0.352-1.1-0.7-1.655-1.043c-0.252-0.155-0.504-0.311-0.757-0.465c-0.556-0.338-1.115-0.671-1.676-1.001      c-0.231-0.136-0.46-0.274-0.692-0.407c-0.784-0.455-1.572-0.904-2.364-1.342v-12.969c0-11.543,9.358-20.901,20.901-20.901h2.705      v-27.357h-2.705c-26.652,0-48.258,21.606-48.258,48.258v0.956c-2.978-1.037-5.903-1.982-8.734-2.841      c-1.286-0.389-2.576-0.754-3.871-1.099c-1.017-0.27-2.037-0.515-3.058-0.759c-0.248-0.059-0.495-0.125-0.743-0.183      c-2.892-0.67-5.799-1.239-8.718-1.692c0.35,0.124,0.686,0.251,1.033,0.376c-0.894,4.931-2.007,11.06-3.401,18.747      c33.94,7.114,50.914,27.966,59.271,49.174c10.976,27.853,7.58,59.221-7.815,84.897c-31.938,53.266-74.665,76.039-74.665,76.039      l7.662,4.052c11.382,4.342,24.45,2.6,34.384-5.133c29.198-22.727,77.869-72.311,77.869-150.305      C365.086,262.532,358.553,249.369,348.659,238.739z"/></g><g><path class="st7" d="M275.388,181.432c0,0-0.001,0.003-0.018,0.096c0.012-0.035,0.024-0.073,0.036-0.109L275.388,181.432z"/></g></g><g><path class="st2" d="M265.483,442.592c-8.267,0.001-16.551-2.492-23.743-7.507c-18.357-12.798-44.671-33.113-65.781-57.214     c-25.911-29.583-37.551-57.476-34.598-82.907c2.137-37.516,19.678-66.979,50.737-85.213c8.993-5.279,18.676-9.331,28.837-12.07     c0.756-5.634,1.726-11.1,2.893-16.298c0.99-4.413,2.152-8.748,3.468-12.939c-1.864-1.378-3.652-2.812-5.347-4.287     c-20.683-18.02-27.708-42.374-19.783-68.577c0.96-3.172,4.309-4.964,7.48-4.006l26.186,7.92c1.522,0.461,2.801,1.508,3.552,2.91     c0.752,1.403,0.915,3.047,0.454,4.57c-3.098,10.239-1.497,17.915,5.393,25.07c0.807-1.103,1.631-2.186,2.471-3.245     c-5.561-13.253-8.701-32.828,3.148-56.07c1.506-2.953,5.118-4.124,8.071-2.62l24.371,12.426c1.417,0.724,2.49,1.979,2.981,3.493     s0.361,3.16-0.361,4.578c-1.908,3.742-3.092,7.367-3.544,10.846c8.584-3.921,17.875-6.603,27.731-7.998     c1.576-0.226,3.176,0.188,4.447,1.146c1.271,0.956,2.111,2.379,2.334,3.954l6.134,43.339c0.465,3.281-1.819,6.317-5.1,6.781     c-8.271,1.171-30.241,4.28-39.478,44.08c-0.253,1.093-0.495,2.206-0.725,3.338c3.776,0.775,7.513,1.722,11.165,2.828     c0.489,0.148,0.979,0.299,1.468,0.45c3.522-26.538,26.3-47.08,53.785-47.08h2.705c3.313,0,6,2.687,6,6v27.356     c0,3.313-2.687,6-6,6h-2.705c-8.217,0-14.901,6.685-14.901,14.901v9.481c27.777,16.277,41.856,37.375,41.856,62.749     c0,80.592-50.237,131.729-80.184,155.039C283.404,439.653,274.454,442.591,265.483,442.592z M212.184,104.878     c-3.865,19.181,2.281,36.842,17.647,50.23c2.417,2.104,5.067,4.118,7.878,5.983c2.282,1.515,3.249,4.382,2.35,6.969     c-1.765,5.078-3.286,10.443-4.521,15.949c-1.357,6.047-2.431,12.496-3.192,19.169c-0.287,2.522-2.131,4.591-4.604,5.165     c-10.475,2.432-20.423,6.388-29.567,11.756c-27.872,16.363-42.959,41.838-44.841,75.716c-0.008,0.126-0.019,0.251-0.033,0.376     c-6.212,52.175,64.579,107.63,95.304,129.05c10.66,7.433,24.694,7.074,34.928-0.894c28.218-21.964,75.555-70.082,75.555-145.57     c0-21.606-13.041-39.778-38.762-54.012c-1.909-1.057-3.095-3.067-3.095-5.25v-12.969c0-13.718,10.321-25.071,23.606-26.701     v-15.43c-21.767,1.688-38.963,19.939-38.963,42.131v0.956c0,1.942-0.94,3.765-2.523,4.891c-1.585,1.126-3.612,1.416-5.448,0.776     c-2.775-0.966-5.638-1.897-8.505-2.768c-5.055-1.531-10.294-2.724-15.569-3.544c-1.574-0.245-2.987-1.105-3.926-2.394     c-0.938-1.287-1.327-2.895-1.079-4.469c0.538-3.416,1.186-6.766,1.926-9.955c4.666-20.104,13.122-34.829,25.134-43.768     c6.786-5.05,13.419-7.307,18.438-8.442l-4.453-31.47c-9.38,1.938-18.083,5.247-25.938,9.87c-1.646,0.97-3.653,1.094-5.408,0.344     c-1.755-0.753-3.047-2.296-3.479-4.156c-1.625-6.987-1.034-14.287,1.752-21.767l-13.751-7.012     c-7.498,18.525-3.736,33.673,1.055,43.444c1.056,2.152,0.729,4.727-0.831,6.547c-2.806,3.272-5.445,6.845-7.847,10.619     c-0.903,1.419-2.36,2.395-4.017,2.688c-1.658,0.291-3.36-0.123-4.694-1.146c-1.088-0.833-1.976-1.554-2.794-2.268     c-11.03-9.61-15.306-20.838-12.968-34.183L212.184,104.878z"/></g><g><path class="st2" d="M303.353,343.649c-1.318,0-2.646-0.426-3.755-1.3c-1.114-0.879-11.369-9.569-28.256-43.845     c-17.444-35.402-6.955-96.059-6.501-98.623c0.579-3.264,3.689-5.438,6.955-4.859c3.262,0.578,5.438,3.691,4.861,6.954     c-0.104,0.59-10.252,59.36,5.448,91.225c15.603,31.667,24.906,39.709,24.998,39.786c2.603,2.052,3.011,5.794,0.959,8.396     C306.885,342.877,305.128,343.649,303.353,343.649z"/></g><g><path class="st2" d="M230.045,321.973c-2.665,0-5.098-1.788-5.802-4.486c-10.132-38.839,37.229-78.732,39.25-80.412     c1.306-1.084,3.013-1.559,4.688-1.324c1.68,0.242,3.179,1.184,4.125,2.591c0.153,0.228,15.655,23.06,34.349,35.594     c2.752,1.846,3.487,5.572,1.642,8.325c-1.845,2.753-5.571,3.486-8.325,1.642c-14.845-9.954-27.41-25.117-33.573-33.26     c-11.067,10.596-37.081,38.751-30.543,63.815c0.837,3.207-1.085,6.484-4.291,7.32     C231.056,321.91,230.546,321.973,230.045,321.973z"/></g><g><path class="st2" d="M205.438,294.062c-1.026,0-2.066-0.264-3.017-0.818c-2.863-1.669-3.83-5.343-2.16-8.205     c10.191-17.473,36.461-12.226,37.577-11.994c3.244,0.676,5.326,3.854,4.65,7.098c-0.675,3.239-3.847,5.319-7.085,4.653     c-0.259-0.05-19.042-3.544-24.777,6.288C209.512,292.995,207.503,294.062,205.438,294.062z"/></g><g><path class="st2" d="M280.853,358.602c-2.692,0.001-5.141-1.825-5.818-4.556c-5.169-20.824,4.368-43.281,4.777-44.227     c1.312-3.042,4.843-4.443,7.887-3.129c3.04,1.312,4.441,4.841,3.132,7.881c-0.127,0.299-8.317,19.791-4.149,36.584     c0.798,3.216-1.162,6.471-4.378,7.269C281.817,358.544,281.331,358.602,280.853,358.602z"/></g></g></g></svg>