<svg width="40" height="39" viewBox="0 0 40 39" fill="none" xmlns="http://www.w3.org/2000/svg">
<mask id="mask0_33_203" style="mask-type:alpha" maskUnits="userSpaceOnUse" x="0" y="0" width="40" height="39">
<path d="M38 19.1667C38 28.5682 30.0222 36.3333 20 36.3333C9.9778 36.3333 2 28.5682 2 19.1667C2 9.76515 9.9778 2 20 2C30.0222 2 38 9.76515 38 19.1667Z" fill="#AFB8B7" stroke="#AFB8B7" stroke-width="4"/>
</mask>
<g mask="url(#mask0_33_203)">
<path d="M38 19.1667C38 28.5682 30.0222 36.3333 20 36.3333C9.9778 36.3333 2 28.5682 2 19.1667C2 9.76515 9.9778 2 20 2C30.0222 2 38 9.76515 38 19.1667Z" stroke="#38615D" stroke-width="4"/>
<path d="M19.8208 23C24.2041 23 27.7574 19.6421 27.7574 15.5C27.7574 11.3579 24.2041 8 19.8208 8C15.4376 8 11.8843 11.3579 11.8843 15.5C11.8843 19.6421 15.4376 23 19.8208 23Z" fill="#38615D"/>
<path d="M20 24C13.9373 24 9 28.62 9 34.3125C9 34.6975 9.26623 35 9.60506 35H30.3949C30.7338 35 31 34.6975 31 34.3125C31 28.62 26.0627 24 20 24Z" fill="#38615D"/>
</g>
</svg>
