<svg width="42" height="27" viewBox="0 0 42 27" fill="none" xmlns="http://www.w3.org/2000/svg">
<path d="M29.0625 15C26.8125 15 23.3062 15.6375 20.625 16.875C17.9437 15.6188 14.4375 15 12.1875 15C8.11875 15 0 17.025 0 21.0938V26.25H41.25V21.0938C41.25 17.025 33.1312 15 29.0625 15ZM21.5625 23.4375H2.8125V21.0938C2.8125 20.0813 7.6125 17.8125 12.1875 17.8125C16.7625 17.8125 21.5625 20.0813 21.5625 21.0938V23.4375ZM38.4375 23.4375H24.375V21.0938C24.375 20.2313 24 19.4813 23.4 18.8063C25.05 18.2438 27.075 17.8125 29.0625 17.8125C33.6375 17.8125 38.4375 20.0813 38.4375 21.0938V23.4375ZM12.1875 13.125C15.8062 13.125 18.75 10.1813 18.75 6.5625C18.75 2.94375 15.8062 0 12.1875 0C8.56875 0 5.625 2.94375 5.625 6.5625C5.625 10.1813 8.56875 13.125 12.1875 13.125ZM12.1875 2.8125C14.25 2.8125 15.9375 4.5 15.9375 6.5625C15.9375 8.625 14.25 10.3125 12.1875 10.3125C10.125 10.3125 8.4375 8.625 8.4375 6.5625C8.4375 4.5 10.125 2.8125 12.1875 2.8125ZM29.0625 13.125C32.6812 13.125 35.625 10.1813 35.625 6.5625C35.625 2.94375 32.6812 0 29.0625 0C25.4437 0 22.5 2.94375 22.5 6.5625C22.5 10.1813 25.4437 13.125 29.0625 13.125ZM29.0625 2.8125C31.125 2.8125 32.8125 4.5 32.8125 6.5625C32.8125 8.625 31.125 10.3125 29.0625 10.3125C27 10.3125 25.3125 8.625 25.3125 6.5625C25.3125 4.5 27 2.8125 29.0625 2.8125Z" fill="#AFB8B7"/>
</svg>
