<svg width="45" height="38" viewBox="0 0 45 38" fill="none" xmlns="http://www.w3.org/2000/svg">
<path d="M30.125 12.5362C26.3732 7.45494 23.6065 3.17397 22.4617 0.606631C22.0993 -0.20221 20.8971 -0.20221 20.5383 0.606631C19.3935 3.17397 17 6.41857 12.8732 12.5362C10.625 16.0913 8 20.3463 8 24.9177C8 32.718 13.4187 38 21.5 38C29.5813 38 35 32.7147 35 24.9177C35 20.1662 32.75 16.0914 30.125 12.5362Z" fill="#CB1818"/>
<path d="M21.4174 25.732H17.6654C17.6 25.9187 17.53 26.124 17.4554 26.348C17.3807 26.5627 17.306 26.7773 17.2314 26.992C17.166 27.1973 17.1007 27.3933 17.0354 27.58C16.97 27.7573 16.9187 27.9067 16.8814 28.028C16.7507 28.084 16.5967 28.112 16.4194 28.112C16.27 28.112 16.1347 28.0747 16.0134 28C15.9014 27.916 15.8454 27.7853 15.8454 27.608C15.8454 27.524 15.8594 27.44 15.8874 27.356C15.9154 27.2627 15.948 27.1647 15.9854 27.062C16.1254 26.67 16.3027 26.166 16.5174 25.55C16.7414 24.934 16.9794 24.2807 17.2314 23.59C17.4927 22.89 17.754 22.19 18.0154 21.49C18.286 20.7807 18.5334 20.146 18.7574 19.586C18.832 19.5487 18.944 19.5113 19.0934 19.474C19.2427 19.4367 19.3967 19.418 19.5554 19.418C19.742 19.418 19.9194 19.446 20.0874 19.502C20.2647 19.558 20.3767 19.6513 20.4234 19.782C20.6474 20.3233 20.8854 20.944 21.1374 21.644C21.3987 22.3347 21.66 23.044 21.9214 23.772C22.1827 24.5 22.43 25.2187 22.6634 25.928C22.906 26.628 23.1207 27.2627 23.3074 27.832C23.2327 27.916 23.144 27.9813 23.0414 28.028C22.9387 28.084 22.822 28.112 22.6914 28.112C22.514 28.112 22.3787 28.0747 22.2854 28C22.192 27.916 22.1127 27.7807 22.0474 27.594L21.4174 25.732ZM19.5414 20.37C19.4387 20.65 19.322 20.972 19.1914 21.336C19.0607 21.6907 18.9254 22.064 18.7854 22.456C18.6454 22.848 18.5054 23.2447 18.3654 23.646C18.2254 24.0473 18.0947 24.43 17.9734 24.794H21.1234C20.9834 24.374 20.8387 23.954 20.6894 23.534C20.54 23.1047 20.3954 22.694 20.2554 22.302C20.1247 21.91 19.9987 21.5507 19.8774 21.224C19.7654 20.888 19.672 20.6033 19.5974 20.37H19.5414ZM24.9872 24.808C24.9592 24.7427 24.9359 24.6773 24.9172 24.612C24.8986 24.5373 24.8892 24.4533 24.8892 24.36C24.8892 24.0427 25.0526 23.884 25.3792 23.884H28.7252C28.7439 23.94 28.7626 24.0053 28.7812 24.08C28.8092 24.1547 28.8232 24.234 28.8232 24.318C28.8232 24.6447 28.6599 24.808 28.3332 24.808H24.9872Z" fill="white"/>
</svg>
