<svg width="45" height="38" viewBox="0 0 45 38" fill="none" xmlns="http://www.w3.org/2000/svg">
<path d="M30.125 12.5362C26.3732 7.45494 23.6065 3.17397 22.4617 0.606631C22.0993 -0.20221 20.8971 -0.20221 20.5383 0.606631C19.3935 3.17397 17 6.41857 12.8732 12.5362C10.625 16.0913 8 20.3463 8 24.9177C8 32.718 13.4187 38 21.5 38C29.5813 38 35 32.7147 35 24.9177C35 20.1662 32.75 16.0914 30.125 12.5362Z" fill="#CB1818"/>
<path d="M20.3031 25.732H16.5511C16.4858 25.9187 16.4158 26.124 16.3411 26.348C16.2664 26.5627 16.1918 26.7773 16.1171 26.992C16.0518 27.1973 15.9864 27.3933 15.9211 27.58C15.8558 27.7573 15.8044 27.9067 15.7671 28.028C15.6364 28.084 15.4824 28.112 15.3051 28.112C15.1558 28.112 15.0204 28.0747 14.8991 28C14.7871 27.916 14.7311 27.7853 14.7311 27.608C14.7311 27.524 14.7451 27.44 14.7731 27.356C14.8011 27.2627 14.8338 27.1647 14.8711 27.062C15.0111 26.67 15.1884 26.166 15.4031 25.55C15.6271 24.934 15.8651 24.2807 16.1171 23.59C16.3784 22.89 16.6398 22.19 16.9011 21.49C17.1718 20.7807 17.4191 20.146 17.6431 19.586C17.7178 19.5487 17.8298 19.5113 17.9791 19.474C18.1284 19.4367 18.2824 19.418 18.4411 19.418C18.6278 19.418 18.8051 19.446 18.9731 19.502C19.1504 19.558 19.2624 19.6513 19.3091 19.782C19.5331 20.3233 19.7711 20.944 20.0231 21.644C20.2844 22.3347 20.5458 23.044 20.8071 23.772C21.0684 24.5 21.3158 25.2187 21.5491 25.928C21.7918 26.628 22.0064 27.2627 22.1931 27.832C22.1184 27.916 22.0298 27.9813 21.9271 28.028C21.8244 28.084 21.7078 28.112 21.5771 28.112C21.3998 28.112 21.2644 28.0747 21.1711 28C21.0778 27.916 20.9984 27.7807 20.9331 27.594L20.3031 25.732ZM18.4271 20.37C18.3244 20.65 18.2078 20.972 18.0771 21.336C17.9464 21.6907 17.8111 22.064 17.6711 22.456C17.5311 22.848 17.3911 23.2447 17.2511 23.646C17.1111 24.0473 16.9804 24.43 16.8591 24.794H20.0091C19.8691 24.374 19.7244 23.954 19.5751 23.534C19.4258 23.1047 19.2811 22.694 19.1411 22.302C19.0104 21.91 18.8844 21.5507 18.7631 21.224C18.6511 20.888 18.5578 20.6033 18.4831 20.37H18.4271ZM27.387 23.352H29.879C29.8977 23.408 29.9163 23.4733 29.935 23.548C29.963 23.6227 29.977 23.702 29.977 23.786C29.977 24.1127 29.8137 24.276 29.487 24.276H27.387V26.978C27.3123 27.006 27.2377 27.0293 27.163 27.048C27.0977 27.0667 27.0137 27.076 26.911 27.076C26.7243 27.076 26.5843 27.034 26.491 26.95C26.407 26.866 26.365 26.7213 26.365 26.516V24.276H23.831C23.803 24.2107 23.7797 24.1453 23.761 24.08C23.7423 24.0053 23.733 23.9213 23.733 23.828C23.733 23.5107 23.8963 23.352 24.223 23.352H26.365V20.706C26.4397 20.678 26.5143 20.6547 26.589 20.636C26.673 20.6173 26.771 20.608 26.883 20.608C27.0603 20.608 27.1863 20.65 27.261 20.734C27.345 20.818 27.387 20.9627 27.387 21.168V23.352Z" fill="white"/>
</svg>
