<svg width="45" height="38" viewBox="0 0 45 38" fill="none" xmlns="http://www.w3.org/2000/svg">
<path d="M30.125 12.5362C26.3732 7.45494 23.6065 3.17397 22.4617 0.606631C22.0993 -0.20221 20.8971 -0.20221 20.5383 0.606631C19.3935 3.17397 17 6.41857 12.8732 12.5362C10.625 16.0913 8 20.3463 8 24.9177C8 32.718 13.4187 38 21.5 38C29.5813 38 35 32.7147 35 24.9177C35 20.1662 32.75 16.0914 30.125 12.5362Z" fill="#CB1818"/>
<path d="M17.8219 25.732H14.0699C14.0046 25.9187 13.9346 26.124 13.8599 26.348C13.7853 26.5627 13.7106 26.7773 13.6359 26.992C13.5706 27.1973 13.5053 27.3933 13.4399 27.58C13.3746 27.7573 13.3233 27.9067 13.2859 28.028C13.1553 28.084 13.0013 28.112 12.8239 28.112C12.6746 28.112 12.5393 28.0747 12.4179 28C12.3059 27.916 12.2499 27.7853 12.2499 27.608C12.2499 27.524 12.2639 27.44 12.2919 27.356C12.3199 27.2627 12.3526 27.1647 12.3899 27.062C12.5299 26.67 12.7073 26.166 12.9219 25.55C13.1459 24.934 13.3839 24.2807 13.6359 23.59C13.8973 22.89 14.1586 22.19 14.4199 21.49C14.6906 20.7807 14.9379 20.146 15.1619 19.586C15.2366 19.5487 15.3486 19.5113 15.4979 19.474C15.6473 19.4367 15.8013 19.418 15.9599 19.418C16.1466 19.418 16.3239 19.446 16.4919 19.502C16.6693 19.558 16.7813 19.6513 16.8279 19.782C17.0519 20.3233 17.2899 20.944 17.5419 21.644C17.8033 22.3347 18.0646 23.044 18.3259 23.772C18.5873 24.5 18.8346 25.2187 19.0679 25.928C19.3106 26.628 19.5253 27.2627 19.7119 27.832C19.6373 27.916 19.5486 27.9813 19.4459 28.028C19.3433 28.084 19.2266 28.112 19.0959 28.112C18.9186 28.112 18.7833 28.0747 18.6899 28C18.5966 27.916 18.5173 27.7807 18.4519 27.594L17.8219 25.732ZM15.9459 20.37C15.8433 20.65 15.7266 20.972 15.5959 21.336C15.4653 21.6907 15.3299 22.064 15.1899 22.456C15.0499 22.848 14.9099 23.2447 14.7699 23.646C14.6299 24.0473 14.4993 24.43 14.3779 24.794H17.5279C17.3879 24.374 17.2433 23.954 17.0939 23.534C16.9446 23.1047 16.7999 22.694 16.6599 22.302C16.5293 21.91 16.4033 21.5507 16.2819 21.224C16.1699 20.888 16.0766 20.6033 16.0019 20.37H15.9459ZM26.1491 21.63C26.1491 22.0313 26.0511 22.4047 25.8551 22.75C25.6684 23.086 25.3511 23.3473 24.9031 23.534C25.4351 23.7113 25.8317 23.9913 26.0931 24.374C26.3544 24.7473 26.4851 25.172 26.4851 25.648C26.4851 26.4973 26.1771 27.1273 25.5611 27.538C24.9544 27.9487 24.0864 28.154 22.9571 28.154C22.5651 28.154 22.1824 28.1353 21.8091 28.098C21.4451 28.07 21.0951 28.0093 20.7591 27.916C20.3671 27.804 20.1711 27.5893 20.1711 27.272V20.104C20.1711 19.8333 20.3251 19.656 20.6331 19.572C20.9504 19.4787 21.2864 19.418 21.6411 19.39C21.9957 19.3527 22.3831 19.334 22.8031 19.334C23.8577 19.334 24.6791 19.5207 25.2671 19.894C25.8551 20.2673 26.1491 20.846 26.1491 21.63ZM21.2911 24.038V27.062C21.5151 27.1087 21.7717 27.146 22.0611 27.174C22.3597 27.202 22.6584 27.216 22.9571 27.216C23.7317 27.216 24.3197 27.09 24.7211 26.838C25.1224 26.5767 25.3231 26.1707 25.3231 25.62C25.3231 25.1347 25.1411 24.752 24.7771 24.472C24.4224 24.1827 23.8951 24.038 23.1951 24.038H21.2911ZM21.2911 23.114H23.1951C23.7831 23.114 24.2264 22.9833 24.5251 22.722C24.8331 22.4607 24.9871 22.106 24.9871 21.658C24.9871 20.734 24.2591 20.272 22.8031 20.272C22.4764 20.272 22.1917 20.286 21.9491 20.314C21.7157 20.3327 21.4964 20.3607 21.2911 20.398V23.114ZM28.5827 24.808C28.5547 24.7427 28.5313 24.6773 28.5127 24.612C28.494 24.5373 28.4847 24.4533 28.4847 24.36C28.4847 24.0427 28.648 23.884 28.9747 23.884H32.3207C32.3393 23.94 32.358 24.0053 32.3767 24.08C32.4047 24.1547 32.4187 24.234 32.4187 24.318C32.4187 24.6447 32.2553 24.808 31.9287 24.808H28.5827Z" fill="white"/>
</svg>
